<?xml version="1.0" encoding="utf-8"?>
<!-- Generator: Adobe Illustrator 25.0.0, SVG Export Plug-In . SVG Version: 6.00 Build 0)  -->
<svg version="1.1" id="OBJECTS" xmlns="http://www.w3.org/2000/svg" xmlns:xlink="http://www.w3.org/1999/xlink" x="0px" y="0px"
	 viewBox="0 0 143.9 40.9" style="enable-background:new 0 0 143.9 40.9;" xml:space="preserve">
<style type="text/css">
	.st0{fill:#FFFFFF;}
	.st1{fill:#4EA9E8;}
</style>
<path class="st0" d="M25.1,2.7h2.4L14.2,26.2L0.9,2.7h2.4l10.9,19.2L25.1,2.7z"/>
<path class="st0" d="M36.4,2.7l13.3,23.5h-2.4L36.4,7L25.5,26.2h-2.4L36.4,2.7z"/>
<path class="st0" d="M63.5,2.7h11.9v2H63.5c-5.4,0-9.9,4.4-9.9,9.8s4.4,9.8,9.9,9.8h11.9v2H63.5c-6.5,0-11.9-5.3-11.9-11.8
	S57,2.7,63.5,2.7z"/>
<path class="st0" d="M105,14.5v11.8h-2V14.5c0-5.4-4.4-9.8-9.9-9.8c-5.4,0-9.9,4.4-9.9,9.8v11.8h-2V14.5c0-6.5,5.3-11.8,11.9-11.8
	C99.7,2.7,105,8,105,14.5z"/>
<path class="st1" d="M110.9,2.7h2v23.5h-2V2.7z"/>
<path class="st0" d="M130.7,2.7h11.9v2h-11.9c-5.4,0-9.9,4.4-9.9,9.8s4.4,9.8,9.9,9.8h11.9v2h-11.9c-6.5,0-11.9-5.3-11.9-11.8
	S124.2,2.7,130.7,2.7z"/>
<g>
	<path class="st0" d="M0.9,30.8h0.6v7.4H0.9V30.8z"/>
	<path class="st0" d="M3.4,30.8h7.4v0.6H7.4v6.7H6.7v-6.7H3.4V30.8z"/>
	<path class="st0" d="M23.6,30.8v0.6h-5.4c-0.8,0-1.4,0.6-1.4,1.4s0.6,1.4,1.4,1.4h3.4c1.1,0,2,0.9,2,2s-0.9,2-2,2h-5.4v-0.6h5.4
		c0.8,0,1.4-0.6,1.4-1.4c0-0.8-0.6-1.4-1.4-1.4h-3.4c-1.1,0-2-0.9-2-2c0-1.1,0.9-2,2-2H23.6z"/>
	<path class="st0" d="M32.8,34.5c0,2-1.6,3.7-3.7,3.7c-2,0-3.7-1.6-3.7-3.7s1.6-3.7,3.7-3.7S32.8,32.4,32.8,34.5z M32.2,34.5
		c0-1.7-1.4-3.1-3.1-3.1S26,32.8,26,34.5s1.4,3.1,3.1,3.1C30.8,37.5,32.2,36.2,32.2,34.5z"/>
	<path class="st0" d="M41.5,37.5H42v0.6h-2h-5.4v-0.5v-0.1v-6.7h0.6v6.7H40H41.5z"/>
	<path class="st0" d="M49.4,30.8H50v3.7c0,2-1.6,3.7-3.7,3.7c-2,0-3.7-1.6-3.7-3.7v-3.7h0.6v3.7c0,1.7,1.4,3.1,3.1,3.1
		s3.1-1.4,3.1-3.1C49.4,34.5,49.4,30.8,49.4,30.8z"/>
	<path class="st0" d="M51.8,30.8h7.4v0.6h-3.4v6.7h-0.6v-6.7h-3.4V30.8z"/>
	<path class="st0" d="M61,30.8h0.6v7.4H61V30.8z"/>
	<path class="st0" d="M70.9,34.5c0,2-1.6,3.7-3.7,3.7s-3.7-1.6-3.7-3.7s1.6-3.7,3.7-3.7S70.9,32.4,70.9,34.5z M70.2,34.5
		c0-1.7-1.4-3.1-3.1-3.1S64,32.8,64,34.5s1.4,3.1,3.1,3.1S70.2,36.2,70.2,34.5z"/>
	<path class="st0" d="M80.1,34.5v3.7h-0.6v-3.7c0-1.7-1.4-3.1-3.1-3.1s-3.1,1.4-3.1,3.1v3.7h-0.6v-3.7c0-2,1.6-3.7,3.7-3.7
		S80.1,32.4,80.1,34.5z"/>
	<path class="st0" d="M91,30.8h-5.4v0.6H91c0.8,0,1.4,0.6,1.4,1.4s-1,1.4-1.4,1.4h-4.8h-0.6v4h0.6v-3.4H91c1.1,0,2-0.9,2-2
		C92.9,31.7,92.1,30.8,91,30.8z"/>
	<path class="st0" d="M101.8,30.8h0.8l-4.1,7.4l-4.1-7.4h0.8l3.4,6L101.8,30.8z"/>
	<path class="st0" d="M104.4,30.8h7.4v0.6h-3.4v6.7h-0.6v-6.7h-3.4V30.8z"/>
	<path class="st0" d="M114,37.2c0.3,0,0.5,0.2,0.5,0.5s-0.2,0.5-0.5,0.5s-0.5-0.2-0.5-0.5S113.8,37.2,114,37.2z"/>
	<path class="st0" d="M123.1,37.5h0.6v0.6h-2h-5.4v-0.5v-0.1v-6.7h0.6v6.7h4.8H123.1z"/>
	<path class="st0" d="M123.7,30.8h7.4v0.6h-3.4v6.7h-0.6v-6.7h-3.4C123.7,31.4,123.7,30.8,123.7,30.8z"/>
	<path class="st0" d="M140.3,34.5c0,2-1.6,3.7-3.7,3.7h-3.7v-0.6h3.7c1.7,0,3.1-1.4,3.1-3.1s-1.4-3.1-3.1-3.1h-3.7v-0.6h3.7
		C138.6,30.8,140.3,32.4,140.3,34.5z"/>
	<path class="st0" d="M142.6,37.2c0.3,0,0.5,0.2,0.5,0.5s-0.2,0.5-0.5,0.5s-0.5-0.2-0.5-0.5S142.3,37.2,142.6,37.2z"/>
</g>
</svg>
