<svg id="OBJECTS" xmlns="http://www.w3.org/2000/svg" viewBox="0 0 142.12 35.43"><defs><style>.cls-1{fill:#4ea9e8;}</style></defs><path d="M25.14,2.72h2.42L14.23,26.22.9,2.72H3.33L14.23,22Z" transform="translate(-0.9 -2.72)"/><path d="M36.45,2.72l13.3,23.5H47.32L36.44,7,25.53,26.22H23.11Z" transform="translate(-0.9 -2.72)"/><path d="M63.51,2.72H75.37v2H63.51a9.78,9.78,0,1,0,0,19.56H75.37v2H63.51a11.75,11.75,0,1,1,0-23.5Z" transform="translate(-0.9 -2.72)"/><path d="M105,14.47V26.22h-2V14.47a9.87,9.87,0,0,0-19.73,0V26.22h-2V14.47a11.86,11.86,0,0,1,23.72,0Z" transform="translate(-0.9 -2.72)"/><path class="cls-1" d="M110.93,2.72h2v23.5h-2Z" transform="translate(-0.9 -2.72)"/><path d="M130.71,2.72h11.85v2H130.71a9.78,9.78,0,1,0,0,19.56h11.85v2H130.71a11.75,11.75,0,1,1,0-23.5Z" transform="translate(-0.9 -2.72)"/><path d="M.9,30.78h.62v7.36H.9Z" transform="translate(-0.9 -2.72)"/><path d="M3.36,30.78h7.37v.62H7.36v6.74H6.74V31.4H3.36Z" transform="translate(-0.9 -2.72)"/><path d="M23.62,30.78v.62H18.25a1.38,1.38,0,1,0,0,2.75h3.37a2,2,0,1,1,0,4H16.25v-.61h5.37a1.38,1.38,0,1,0,0-2.76H18.25a2,2,0,1,1,0-4Z" transform="translate(-0.9 -2.72)"/><path d="M32.82,34.46a3.68,3.68,0,1,1-3.68-3.68A3.67,3.67,0,0,1,32.82,34.46Zm-.61,0a3.07,3.07,0,1,0-3.07,3.07A3.07,3.07,0,0,0,32.21,34.46Z" transform="translate(-0.9 -2.72)"/><path d="M41.48,37.53H42v.61H34.66V30.78h.62v6.75h6.2Z" transform="translate(-0.9 -2.72)"/><path d="M49.37,30.78H50v3.68a3.68,3.68,0,0,1-7.36,0V30.78h.62v3.68a3.07,3.07,0,1,0,6.13,0Z" transform="translate(-0.9 -2.72)"/><path d="M51.83,30.78h7.36v.62H55.82v6.74H55.2V31.4H51.83Z" transform="translate(-0.9 -2.72)"/><path d="M61,30.78h.62v7.36H61Z" transform="translate(-0.9 -2.72)"/><path d="M70.86,34.46a3.69,3.69,0,1,1-3.69-3.68A3.68,3.68,0,0,1,70.86,34.46Zm-.62,0a3.07,3.07,0,1,0-3.07,3.07A3.07,3.07,0,0,0,70.24,34.46Z" transform="translate(-0.9 -2.72)"/><path d="M80.06,34.46v3.68h-.62V34.46a3.07,3.07,0,0,0-6.13,0v3.68H72.7V34.46a3.68,3.68,0,0,1,7.36,0Z" transform="translate(-0.9 -2.72)"/><path d="M91,30.78H85.58v.62H91a1.38,1.38,0,0,1,1.38,1.37c0,.77-1,1.38-1.38,1.38H85.58v4h.62V34.77H91a2,2,0,1,0,0-4Z" transform="translate(-0.9 -2.72)"/><path d="M101.77,30.78h.75l-4.14,7.36-4.14-7.36H95l3.39,6Z" transform="translate(-0.9 -2.72)"/><path d="M104.36,30.78h7.36v.62h-3.37v6.74h-.62V31.4h-3.37Z" transform="translate(-0.9 -2.72)"/><path d="M114,37.22a.47.47,0,0,1,.46.46.47.47,0,0,1-.93,0A.47.47,0,0,1,114,37.22Z" transform="translate(-0.9 -2.72)"/><path d="M123.14,37.53h.55v.61h-7.37V30.78h.62v6.75h6.2Z" transform="translate(-0.9 -2.72)"/><path d="M123.69,30.78h7.36v.62h-3.37v6.74h-.62V31.4h-3.37Z" transform="translate(-0.9 -2.72)"/><path d="M140.26,34.46a3.68,3.68,0,0,1-3.68,3.68H132.9v-.61h3.68a3.07,3.07,0,0,0,0-6.13H132.9v-.62h3.68A3.68,3.68,0,0,1,140.26,34.46Z" transform="translate(-0.9 -2.72)"/><path d="M142.56,37.22a.47.47,0,0,1,.47.46.47.47,0,1,1-.47-.46Z" transform="translate(-0.9 -2.72)"/></svg>