<svg id="Layer_1" data-name="Layer 1" xmlns="http://www.w3.org/2000/svg" viewBox="0 0 142.2 35.5"><defs><style>.cls-1{fill:#fff;}.cls-2{fill:#4ea9e8;}</style></defs><path class="cls-1" d="M25.6,3.25H28L14.7,26.75,1.4,3.25H3.8l10.9,19.2Z" transform="translate(-1.4 -3.25)"/><path class="cls-1" d="M36.9,3.25l13.3,23.5H47.8L36.9,7.55,26,26.75H23.6Z" transform="translate(-1.4 -3.25)"/><path class="cls-1" d="M64,3.25H75.9v2H64a9.8,9.8,0,1,0,0,19.6H75.9v2H64a11.91,11.91,0,0,1-11.9-11.8A11.91,11.91,0,0,1,64,3.25Z" transform="translate(-1.4 -3.25)"/><path class="cls-1" d="M105.5,15.05v11.8h-2V15.05a9.9,9.9,0,0,0-19.8,0v11.8h-2V15.05a11.9,11.9,0,0,1,23.8,0Z" transform="translate(-1.4 -3.25)"/><path class="cls-2" d="M111.4,3.25h2v23.5h-2Z" transform="translate(-1.4 -3.25)"/><path class="cls-1" d="M131.2,3.25h11.9v2H131.2a9.8,9.8,0,1,0,0,19.6h11.9v2H131.2a11.91,11.91,0,0,1-11.9-11.8A11.91,11.91,0,0,1,131.2,3.25Z" transform="translate(-1.4 -3.25)"/><path class="cls-1" d="M1.4,31.35H2v7.4H1.4Z" transform="translate(-1.4 -3.25)"/><path class="cls-1" d="M3.9,31.35h7.4V32H7.9v6.7H7.2V32H3.9Z" transform="translate(-1.4 -3.25)"/><path class="cls-1" d="M24.1,31.35V32H18.7a1.4,1.4,0,1,0,0,2.8h3.4a2,2,0,0,1,0,4H16.7v-.6h5.4a1.4,1.4,0,0,0,0-2.8H18.7a2,2,0,1,1,0-4Z" transform="translate(-1.4 -3.25)"/><path class="cls-1" d="M33.3,35.05a3.7,3.7,0,1,1-7.4,0,3.7,3.7,0,0,1,7.4,0Zm-.6,0a3.1,3.1,0,1,0-3.1,3.1A3.18,3.18,0,0,0,32.7,35.05Z" transform="translate(-1.4 -3.25)"/><path class="cls-1" d="M42,38.05h.5v.6H35.1v-7.3h.6v6.7H42Z" transform="translate(-1.4 -3.25)"/><path class="cls-1" d="M49.9,31.35h.6v3.7a3.7,3.7,0,0,1-7.4,0v-3.7h.6v3.7a3.1,3.1,0,0,0,6.2,0Z" transform="translate(-1.4 -3.25)"/><path class="cls-1" d="M52.3,31.35h7.4V32H56.3v6.7h-.6V32H52.3Z" transform="translate(-1.4 -3.25)"/><path class="cls-1" d="M61.5,31.35h.6v7.4h-.6Z" transform="translate(-1.4 -3.25)"/><path class="cls-1" d="M71.4,35.05a3.69,3.69,0,0,1-3.7,3.7,3.7,3.7,0,1,1,3.7-3.7Zm-.7,0a3.1,3.1,0,1,0-3.1,3.1A3.12,3.12,0,0,0,70.7,35.05Z" transform="translate(-1.4 -3.25)"/><path class="cls-1" d="M80.6,35.05v3.7H80v-3.7a3.1,3.1,0,1,0-6.2,0v3.7h-.6v-3.7a3.69,3.69,0,0,1,3.7-3.7A3.63,3.63,0,0,1,80.6,35.05Z" transform="translate(-1.4 -3.25)"/><path class="cls-1" d="M91.5,31.35H86.1V32h5.4a1.37,1.37,0,0,1,1.4,1.4c0,.8-1,1.4-1.4,1.4H86.1v4h.6v-3.4h4.8a2,2,0,0,0,2-2A2.07,2.07,0,0,0,91.5,31.35Z" transform="translate(-1.4 -3.25)"/><path class="cls-1" d="M102.3,31.35h.8L99,38.75l-4.1-7.4h.8l3.4,6Z" transform="translate(-1.4 -3.25)"/><path class="cls-1" d="M104.9,31.35h7.4V32h-3.4v6.7h-.6V32h-3.4Z" transform="translate(-1.4 -3.25)"/><path class="cls-1" d="M114.5,37.75a.5.5,0,1,1-.5.5A.54.54,0,0,1,114.5,37.75Z" transform="translate(-1.4 -3.25)"/><path class="cls-1" d="M123.6,38.05h.6v.6h-7.4v-7.3h.6v6.7h6.2Z" transform="translate(-1.4 -3.25)"/><path class="cls-1" d="M124.2,31.35h7.4V32h-3.4v6.7h-.6V32h-3.4Z" transform="translate(-1.4 -3.25)"/><path class="cls-1" d="M140.8,35.05a3.69,3.69,0,0,1-3.7,3.7h-3.7v-.6h3.7a3.1,3.1,0,0,0,0-6.2h-3.7v-.6h3.7A3.69,3.69,0,0,1,140.8,35.05Z" transform="translate(-1.4 -3.25)"/><path class="cls-1" d="M143.1,37.75a.5.5,0,1,1-.5.5A.47.47,0,0,1,143.1,37.75Z" transform="translate(-1.4 -3.25)"/></svg>